<svg width="1600" height="820" viewBox="0 0 1600 820" xmlns="http://www.w3.org/2000/svg">
  <defs>
    <marker id="arr" markerWidth="10" markerHeight="10" refX="9" refY="3" orient="auto">
      <path d="M0,0 L0,6 L9,3 z" fill="#2563eb"/>
    </marker>
    <marker id="arr-g" markerWidth="10" markerHeight="10" refX="9" refY="3" orient="auto">
      <path d="M0,0 L0,6 L9,3 z" fill="#16a34a"/>
    </marker>
    <marker id="arr-w" markerWidth="10" markerHeight="10" refX="9" refY="3" orient="auto">
      <path d="M0,0 L0,6 L9,3 z" fill="#ffffff"/>
    </marker>
    <filter id="sh">
      <feDropShadow dx="0" dy="3" stdDeviation="6" flood-color="#0f172a" flood-opacity="0.08"/>
    </filter>
    <linearGradient id="hdrGrad" x1="0" y1="0" x2="1" y2="0">
      <stop offset="0%" stop-color="#1d4ed8"/>
      <stop offset="100%" stop-color="#7c3aed"/>
    </linearGradient>
  </defs>

  <style>
    text { font-family: "Microsoft YaHei","PingFang SC",Arial,sans-serif; }
  </style>

  <!-- ░░ BACKGROUND ░░ -->
  <rect width="1600" height="820" fill="#f1f5f9"/>

  <!-- ═══════════════════════════════════════════
       ROW 1 · HEADER  y=30 h=68
  ═══════════════════════════════════════════ -->
  <rect x="40" y="30" width="1520" height="68" rx="16" fill="#ffffff" filter="url(#sh)"/>
  <rect x="40" y="30" width="10" height="68" rx="5" fill="url(#hdrGrad)"/>
  <text x="68" y="64" font-size="28" font-weight="800" fill="#0f172a">从 Harness 工程角度看 Token 经济学</text>
  <text x="68" y="86" font-size="14" fill="#64748b">用工程化中台管理任务、上下文、模型、工具、验证与预算，让每个 Token 产生更高研发收益</text>

  <!-- ═══════════════════════════════════════════
       ROW 2 · PRINCIPLE BAR  y=112 h=34
  ═══════════════════════════════════════════ -->
  <rect x="40" y="112" width="1520" height="34" rx="17" fill="#0f172a"/>
  <text x="800" y="134" text-anchor="middle" font-size="13" font-weight="700" fill="#ffffff">
    核心原则：上下文不堆料 · 模型不乱用 · Agent 不失控 · 验证不全量 · 预算不透支 · 收益可度量
  </text>

  <!-- ═══════════════════════════════════════════
       ROW 3 · MAIN FLOW PANEL  y=160 h=390
  ═══════════════════════════════════════════ -->
  <rect x="40" y="160" width="1520" height="390" rx="20" fill="#ffffff" filter="url(#sh)"/>

  <!-- ── COL DIVIDERS (subtle) ── -->
  <line x1="242" y1="175" x2="242" y2="538" stroke="#e2e8f0" stroke-width="1.5" stroke-dasharray="4 4"/>
  <line x1="972" y1="175" x2="972" y2="538" stroke="#e2e8f0" stroke-width="1.5" stroke-dasharray="4 4"/>

  <!-- ── SECTION HEADER LABELS ── -->
  <!-- Col1 -->
  <text x="135" y="192" text-anchor="middle" font-size="15" font-weight="800" fill="#1d4ed8">研发任务入口</text>
  <text x="135" y="210" text-anchor="middle" font-size="11" fill="#94a3b8">需求 / 代码 / 日志</text>

  <!-- Col2 -->
  <text x="607" y="192" text-anchor="middle" font-size="15" font-weight="800" fill="#0f172a">AI Harness 工程中台</text>
  <text x="607" y="210" text-anchor="middle" font-size="11" fill="#94a3b8">任务编排 · 上下文 · 模型路由 · 工具 · 验证 · 指标</text>

  <!-- Col3 -->
  <text x="1266" y="192" text-anchor="middle" font-size="15" font-weight="800" fill="#7c3aed">Dynamic Workflow 执行链路</text>
  <text x="1266" y="210" text-anchor="middle" font-size="11" fill="#94a3b8">成本感知型多 Agent 编排</text>

  <!-- ══════════════════════════════
       COL 1 · INPUT CARDS
       x=55  w=172  cards y=228
  ══════════════════════════════ -->
  <rect x="55" y="228" width="172" height="46" rx="12" fill="#eff6ff" stroke="#93c5fd" stroke-width="1.5"/>
  <rect x="55" y="228" width="6" height="46" rx="3" fill="#2563eb"/>
  <text x="148" y="248" text-anchor="middle" font-size="13" font-weight="700" fill="#1d4ed8">需求分析</text>
  <text x="148" y="265" text-anchor="middle" font-size="11" fill="#475569">功能需求 / 技术方案</text>

  <rect x="55" y="284" width="172" height="46" rx="12" fill="#eff6ff" stroke="#93c5fd" stroke-width="1.5"/>
  <rect x="55" y="284" width="6" height="46" rx="3" fill="#2563eb"/>
  <text x="148" y="304" text-anchor="middle" font-size="13" font-weight="700" fill="#1d4ed8">代码生成</text>
  <text x="148" y="321" text-anchor="middle" font-size="11" fill="#475569">新功能 / 重构 / 迁移</text>

  <rect x="55" y="340" width="172" height="46" rx="12" fill="#eff6ff" stroke="#93c5fd" stroke-width="1.5"/>
  <rect x="55" y="340" width="6" height="46" rx="3" fill="#2563eb"/>
  <text x="148" y="360" text-anchor="middle" font-size="13" font-weight="700" fill="#1d4ed8">测试 / Review</text>
  <text x="148" y="377" text-anchor="middle" font-size="11" fill="#475569">单测 / PR / 安全扫描</text>

  <rect x="55" y="396" width="172" height="46" rx="12" fill="#eff6ff" stroke="#93c5fd" stroke-width="1.5"/>
  <rect x="55" y="396" width="6" height="46" rx="3" fill="#2563eb"/>
  <text x="148" y="416" text-anchor="middle" font-size="13" font-weight="700" fill="#1d4ed8">问题定位</text>
  <text x="148" y="433" text-anchor="middle" font-size="11" fill="#475569">Bug / 日志 / 性能</text>

  <rect x="55" y="452" width="172" height="46" rx="12" fill="#eff6ff" stroke="#93c5fd" stroke-width="1.5"/>
  <rect x="55" y="452" width="6" height="46" rx="3" fill="#2563eb"/>
  <text x="148" y="472" text-anchor="middle" font-size="13" font-weight="700" fill="#1d4ed8">文档 / PR 描述</text>
  <text x="148" y="489" text-anchor="middle" font-size="11" fill="#475569">摘要 / 变更说明</text>

  <!-- ARROW col1 → col2 -->
  <path d="M229 361 L261 361" stroke="#2563eb" stroke-width="3" fill="none" marker-end="url(#arr)"/>

  <!-- ══════════════════════════════
       COL 2 · HARNESS CARDS
       inner x=290  card w=208 h=92
       row1 y=228  row2 y=336
  ══════════════════════════════ -->

  <!-- Row1 Card1: 任务编排 x=290 -->
  <rect x="290" y="228" width="208" height="92" rx="14" fill="#eff6ff" stroke="#2563eb" stroke-width="2"/>
  <rect x="290" y="228" width="208" height="32" rx="14" fill="#2563eb"/>
  <rect x="290" y="244" width="208" height="16" fill="#2563eb"/>
  <text x="394" y="249" text-anchor="middle" font-size="13" font-weight="800" fill="#ffffff">① 任务编排</text>
  <text x="394" y="276" text-anchor="middle" font-size="12" fill="#1e40af">拆解 · 分层 · 流程化</text>
  <text x="394" y="294" text-anchor="middle" font-size="11" fill="#475569">Planner / Coder / Tester</text>
  <text x="394" y="311" text-anchor="middle" font-size="11" fill="#475569">Reviewer / Reporter</text>

  <!-- Row1 Card2: 上下文工程 x=516 -->
  <rect x="516" y="228" width="208" height="92" rx="14" fill="#f0fdf4" stroke="#16a34a" stroke-width="2"/>
  <rect x="516" y="228" width="208" height="32" rx="14" fill="#16a34a"/>
  <rect x="516" y="244" width="208" height="16" fill="#16a34a"/>
  <text x="620" y="249" text-anchor="middle" font-size="13" font-weight="800" fill="#ffffff">② 上下文工程</text>
  <text x="620" y="276" text-anchor="middle" font-size="12" fill="#166534">检索 · 裁剪 · 摘要</text>
  <text x="620" y="294" text-anchor="middle" font-size="11" fill="#475569">代码索引 / RAG 检索</text>
  <text x="620" y="311" text-anchor="middle" font-size="11" fill="#475569">先压缩再分发</text>

  <!-- Row1 Card3: 模型路由 x=742 -->
  <rect x="742" y="228" width="208" height="92" rx="14" fill="#f5f3ff" stroke="#7c3aed" stroke-width="2"/>
  <rect x="742" y="228" width="208" height="32" rx="14" fill="#7c3aed"/>
  <rect x="742" y="244" width="208" height="16" fill="#7c3aed"/>
  <text x="846" y="249" text-anchor="middle" font-size="13" font-weight="800" fill="#ffffff">③ 模型路由</text>
  <text x="846" y="276" text-anchor="middle" font-size="12" fill="#5b21b6">小模型批量 · 强模型决策</text>
  <text x="846" y="294" text-anchor="middle" font-size="11" fill="#475569">haiku → sonnet → opus</text>
  <text x="846" y="311" text-anchor="middle" font-size="11" fill="#475569">按复杂度 / 风险路由</text>

  <!-- Row2 Card1: 工具调用 x=290 -->
  <rect x="290" y="336" width="208" height="92" rx="14" fill="#fff7ed" stroke="#f97316" stroke-width="2"/>
  <rect x="290" y="336" width="208" height="32" rx="14" fill="#f97316"/>
  <rect x="290" y="352" width="208" height="16" fill="#f97316"/>
  <text x="394" y="357" text-anchor="middle" font-size="13" font-weight="800" fill="#ffffff">④ 工具调用</text>
  <text x="394" y="384" text-anchor="middle" font-size="12" fill="#9a3412">模型推理 · 工具事实</text>
  <text x="394" y="402" text-anchor="middle" font-size="11" fill="#475569">Build / Test / Lint / Scan</text>
  <text x="394" y="419" text-anchor="middle" font-size="11" fill="#475569">Git Diff / 日志 / AST</text>

  <!-- Row2 Card2: 验证反馈 x=516 -->
  <rect x="516" y="336" width="208" height="92" rx="14" fill="#fef2f2" stroke="#dc2626" stroke-width="2"/>
  <rect x="516" y="336" width="208" height="32" rx="14" fill="#dc2626"/>
  <rect x="516" y="352" width="208" height="16" fill="#dc2626"/>
  <text x="620" y="357" text-anchor="middle" font-size="13" font-weight="800" fill="#ffffff">⑤ 验证反馈</text>
  <text x="620" y="384" text-anchor="middle" font-size="12" fill="#991b1b">生成→测试→修复→再验证</text>
  <text x="620" y="402" text-anchor="middle" font-size="11" fill="#475569">自动化测试 / 静态扫描</text>
  <text x="620" y="419" text-anchor="middle" font-size="11" fill="#475569">失败日志回传 Agent</text>

  <!-- Row2 Card3: 指标沉淀 x=742 -->
  <rect x="742" y="336" width="208" height="92" rx="14" fill="#f0fdf4" stroke="#16a34a" stroke-width="2"/>
  <rect x="742" y="336" width="208" height="32" rx="14" fill="#059669"/>
  <rect x="742" y="352" width="208" height="16" fill="#059669"/>
  <text x="846" y="357" text-anchor="middle" font-size="13" font-weight="800" fill="#ffffff">⑥ 指标沉淀</text>
  <text x="846" y="384" text-anchor="middle" font-size="12" fill="#065f46">成本 · 质量 · 收益</text>
  <text x="846" y="402" text-anchor="middle" font-size="11" fill="#475569">Token ROI / 首次可用率</text>
  <text x="846" y="419" text-anchor="middle" font-size="11" fill="#475569">节省人时 / 缺陷逃逸率</text>

  <!-- Token Waste tag inside col2 -->
  <rect x="290" y="444" width="660" height="30" rx="15" fill="#fef9c3" stroke="#fbbf24" stroke-width="1.5"/>
  <text x="620" y="464" text-anchor="middle" font-size="12" font-weight="700" fill="#92400e">⚠ Token 浪费四态：上下文浪费 · 模型错配 · 交互浪费 · 验证浪费</text>

  <!-- ARROW col2 → col3 -->
  <path d="M966 361 L998 361" stroke="#2563eb" stroke-width="3" fill="none" marker-end="url(#arr)"/>

  <!-- ══════════════════════════════
       COL 3 · DYNAMIC WORKFLOW
       x=1010  w=550
       5 stage cards y=228 w=88 h=100
       gap=18
  ══════════════════════════════ -->

  <!-- Stage 0: Collect  x=1028 -->
  <rect x="1028" y="228" width="88" height="100" rx="14" fill="#eff6ff" stroke="#2563eb" stroke-width="2"/>
  <rect x="1028" y="228" width="88" height="30" rx="14" fill="#2563eb"/>
  <rect x="1028" y="242" width="88" height="16" fill="#2563eb"/>
  <text x="1072" y="248" text-anchor="middle" font-size="12" font-weight="800" fill="#ffffff">Collect</text>
  <text x="1072" y="276" text-anchor="middle" font-size="11" font-weight="700" fill="#1d4ed8">低成本采集</text>
  <text x="1072" y="293" text-anchor="middle" font-size="10" fill="#475569">haiku 模型</text>
  <text x="1072" y="308" text-anchor="middle" font-size="10" fill="#475569">摘要压缩</text>
  <text x="1072" y="323" text-anchor="middle" font-size="10" fill="#475569">并行 ≤8</text>

  <!-- Arrow 0→1 -->
  <path d="M1116 278 L1132 278" stroke="#2563eb" stroke-width="2.5" fill="none" marker-end="url(#arr)"/>

  <!-- Stage 1: Scan  x=1134 -->
  <rect x="1134" y="228" width="88" height="100" rx="14" fill="#f0fdf4" stroke="#16a34a" stroke-width="2"/>
  <rect x="1134" y="228" width="88" height="30" rx="14" fill="#16a34a"/>
  <rect x="1134" y="242" width="88" height="16" fill="#16a34a"/>
  <text x="1178" y="248" text-anchor="middle" font-size="12" font-weight="800" fill="#ffffff">Scan</text>
  <text x="1178" y="276" text-anchor="middle" font-size="11" font-weight="700" fill="#166534">快速粗筛</text>
  <text x="1178" y="293" text-anchor="middle" font-size="10" fill="#475569">haiku 模型</text>
  <text x="1178" y="308" text-anchor="middle" font-size="10" fill="#475569">schema 约束</text>
  <text x="1178" y="323" text-anchor="middle" font-size="10" fill="#475569">分批并行</text>

  <!-- Arrow 1→2 -->
  <path d="M1222 278 L1238 278" stroke="#2563eb" stroke-width="2.5" fill="none" marker-end="url(#arr)"/>

  <!-- Stage 2: DeepDive  x=1240 -->
  <rect x="1240" y="228" width="88" height="100" rx="14" fill="#fff7ed" stroke="#f97316" stroke-width="2"/>
  <rect x="1240" y="228" width="88" height="30" rx="14" fill="#f97316"/>
  <rect x="1240" y="242" width="88" height="16" fill="#f97316"/>
  <text x="1284" y="248" text-anchor="middle" font-size="12" font-weight="800" fill="#ffffff">DeepDive</text>
  <text x="1284" y="276" text-anchor="middle" font-size="11" font-weight="700" fill="#9a3412">深挖 Top N</text>
  <text x="1284" y="293" text-anchor="middle" font-size="10" fill="#475569">sonnet 模型</text>
  <text x="1284" y="308" text-anchor="middle" font-size="10" fill="#475569">去重后执行</text>
  <text x="1284" y="323" text-anchor="middle" font-size="10" fill="#475569">预算判断</text>

  <!-- Arrow 2→3 -->
  <path d="M1328 278 L1344 278" stroke="#2563eb" stroke-width="2.5" fill="none" marker-end="url(#arr)"/>

  <!-- Stage 3: Verify  x=1346 -->
  <rect x="1346" y="228" width="88" height="100" rx="14" fill="#fef2f2" stroke="#dc2626" stroke-width="2"/>
  <rect x="1346" y="228" width="88" height="30" rx="14" fill="#dc2626"/>
  <rect x="1346" y="242" width="88" height="16" fill="#dc2626"/>
  <text x="1390" y="248" text-anchor="middle" font-size="12" font-weight="800" fill="#ffffff">Verify</text>
  <text x="1390" y="276" text-anchor="middle" font-size="11" font-weight="700" fill="#991b1b">裁剪验证</text>
  <text x="1390" y="293" text-anchor="middle" font-size="10" fill="#475569">sonnet 模型</text>
  <text x="1390" y="308" text-anchor="middle" font-size="10" fill="#475569">只验高风险</text>
  <text x="1390" y="323" text-anchor="middle" font-size="10" fill="#475569">交叉对比</text>

  <!-- Arrow 3→4 -->
  <path d="M1434 278 L1450 278" stroke="#2563eb" stroke-width="2.5" fill="none" marker-end="url(#arr)"/>

  <!-- Stage 4: Synthesize  x=1452 -->
  <rect x="1452" y="228" width="88" height="100" rx="14" fill="#f5f3ff" stroke="#7c3aed" stroke-width="2"/>
  <rect x="1452" y="228" width="88" height="30" rx="14" fill="#7c3aed"/>
  <rect x="1452" y="242" width="88" height="16" fill="#7c3aed"/>
  <text x="1496" y="248" text-anchor="middle" font-size="12" font-weight="800" fill="#ffffff">Synthesize</text>
  <text x="1496" y="276" text-anchor="middle" font-size="11" font-weight="700" fill="#5b21b6">最终汇总</text>
  <text x="1496" y="293" text-anchor="middle" font-size="10" fill="#475569">预留预算</text>
  <text x="1496" y="308" text-anchor="middle" font-size="10" fill="#475569">sonnet/opus</text>
  <text x="1496" y="323" text-anchor="middle" font-size="10" fill="#475569">结构化报告</text>

  <!-- DW: Cost control bar -->
  <rect x="1028" y="346" width="512" height="30" rx="15" fill="#1e1b4b"/>
  <text x="1284" y="366" text-anchor="middle" font-size="11" font-weight="700" fill="#c4b5fd">Budget · Model分层 · Schema · 分批 · 去重 · 裁剪验证</text>

  <!-- DW: Budget control detail -->
  <rect x="1028" y="390" width="245" height="82" rx="12" fill="#f8fafc" stroke="#cbd5e1" stroke-width="1.5"/>
  <text x="1150" y="410" text-anchor="middle" font-size="12" font-weight="800" fill="#0f172a">预算控制机制</text>
  <text x="1150" y="428" text-anchor="middle" font-size="11" fill="#475569">budget.remaining() 动态感知</text>
  <text x="1150" y="444" text-anchor="middle" font-size="11" fill="#475569">预留最终汇总预算</text>
  <text x="1150" y="460" text-anchor="middle" font-size="11" fill="#475569">最大轮数 + 空轮熔断</text>

  <!-- DW: Loop control detail -->
  <rect x="1295" y="390" width="245" height="82" rx="12" fill="#f8fafc" stroke="#cbd5e1" stroke-width="1.5"/>
  <text x="1417" y="410" text-anchor="middle" font-size="12" font-weight="800" fill="#0f172a">循环终止条件</text>
  <text x="1417" y="428" text-anchor="middle" font-size="11" fill="#475569">① 最大轮数上限</text>
  <text x="1417" y="444" text-anchor="middle" font-size="11" fill="#475569">② 连续无新发现</text>
  <text x="1417" y="460" text-anchor="middle" font-size="11" fill="#475569">③ 剩余预算阈值</text>

  <!-- DW: High ROI tag -->
  <rect x="1028" y="488" width="512" height="30" rx="15" fill="#ecfdf5" stroke="#6ee7b7" stroke-width="1.5"/>
  <text x="1284" y="508" text-anchor="middle" font-size="12" font-weight="700" fill="#065f46">高 ROI：单测生成 · 日志分析 · PR描述 · Code Review · Bug定位</text>

  <!-- ═══════════════════════════════════════════
       ROW 4 · TOKEN ECONOMICS  y=568 h=160
  ═══════════════════════════════════════════ -->
  <rect x="40" y="568" width="1520" height="160" rx="20" fill="#ffffff" filter="url(#sh)"/>
  <text x="800" y="594" text-anchor="middle" font-size="15" font-weight="800" fill="#0f172a">Token 经济学：三层公式体系</text>

  <!-- Card 1: AI调用收益 -->
  <rect x="55" y="606" width="355" height="100" rx="14" fill="#eff6ff" stroke="#2563eb" stroke-width="2"/>
  <rect x="55" y="606" width="355" height="32" rx="14" fill="#2563eb"/>
  <rect x="55" y="622" width="355" height="16" fill="#2563eb"/>
  <text x="232" y="627" text-anchor="middle" font-size="13" font-weight="800" fill="#ffffff">AI 调用收益</text>
  <text x="232" y="656" text-anchor="middle" font-size="13" font-weight="700" fill="#1e40af">产出价值</text>
  <text x="232" y="674" text-anchor="middle" font-size="11" fill="#475569">- Token成本 - 等待成本</text>
  <text x="232" y="691" text-anchor="middle" font-size="11" fill="#475569">- 校验成本 - 返工成本</text>

  <!-- Card 2: 单位Token收益 -->
  <rect x="430" y="606" width="355" height="100" rx="14" fill="#f0fdf4" stroke="#16a34a" stroke-width="2"/>
  <rect x="430" y="606" width="355" height="32" rx="14" fill="#16a34a"/>
  <rect x="430" y="622" width="355" height="16" fill="#16a34a"/>
  <text x="607" y="627" text-anchor="middle" font-size="13" font-weight="800" fill="#ffffff">单位 Token 收益</text>
  <text x="607" y="656" text-anchor="middle" font-size="13" font-weight="700" fill="#166534">有效研发价值</text>
  <text x="607" y="674" text-anchor="middle" font-size="11" fill="#475569">÷ (输入 Token + 输出 Token)</text>
  <text x="607" y="691" text-anchor="middle" font-size="11" fill="#475569">目标：提升价值密度</text>

  <!-- Card 3: Token ROI -->
  <rect x="805" y="606" width="355" height="100" rx="14" fill="#fff7ed" stroke="#f97316" stroke-width="2"/>
  <rect x="805" y="606" width="355" height="32" rx="14" fill="#f97316"/>
  <rect x="805" y="622" width="355" height="16" fill="#f97316"/>
  <text x="982" y="627" text-anchor="middle" font-size="13" font-weight="800" fill="#ffffff">Token ROI</text>
  <text x="982" y="656" text-anchor="middle" font-size="13" font-weight="700" fill="#9a3412">人力+周期+质量收益</text>
  <text x="982" y="674" text-anchor="middle" font-size="11" fill="#475569">÷ (Token成本 + 工程成本</text>
  <text x="982" y="691" text-anchor="middle" font-size="11" fill="#475569">+ 人工校验成本)</text>

  <!-- Card 4: 组织资产 -->
  <rect x="1180" y="606" width="355" height="100" rx="14" fill="#f5f3ff" stroke="#7c3aed" stroke-width="2"/>
  <rect x="1180" y="606" width="355" height="32" rx="14" fill="#7c3aed"/>
  <rect x="1180" y="622" width="355" height="16" fill="#7c3aed"/>
  <text x="1357" y="627" text-anchor="middle" font-size="13" font-weight="800" fill="#ffffff">组织级资产沉淀</text>
  <text x="1357" y="656" text-anchor="middle" font-size="13" font-weight="700" fill="#5b21b6">Prompt模板库</text>
  <text x="1357" y="674" text-anchor="middle" font-size="11" fill="#475569">Workflow 模板 · Token ROI 看板</text>
  <text x="1357" y="691" text-anchor="middle" font-size="11" fill="#475569">辅助型 → 半自动 → 编排型</text>

  <!-- ═══════════════════════════════════════════
       ROW 5 · FOOTER  y=742
  ═══════════════════════════════════════════ -->
  <rect x="40" y="742" width="1520" height="46" rx="14" fill="#0f172a"/>
  <text x="800" y="760" text-anchor="middle" font-size="12" font-weight="700" fill="#94a3b8">成熟 AI 研发体系 =</text>
  <text x="800" y="778" text-anchor="middle" font-size="12" fill="#e2e8f0">任务可拆解 · 上下文可裁剪 · 模型可路由 · Agent可控量 · 输出可约束 · 过程可验证 · 预算可感知 · 成本可度量 · 收益可评估 · 流程可复用</text>
</svg>