<svg xmlns="http://www.w3.org/2000/svg" viewBox="0 0 1600 1020" font-family="Microsoft YaHei, PingFang SC, sans-serif">
  <defs>
    <linearGradient id="bg" x1="0" y1="0" x2="0" y2="1">
      <stop offset="0" stop-color="#f2f6fc"/><stop offset="1" stop-color="#e6edf7"/>
    </linearGradient>
    <linearGradient id="titleBar" x1="0" y1="0" x2="1" y2="0">
      <stop offset="0" stop-color="#0f2a5e"/><stop offset="1" stop-color="#1e4fa8"/>
    </linearGradient>
    <marker id="aB" markerWidth="8" markerHeight="8" refX="6" refY="3" orient="auto">
      <path d="M0,0 L7,3 L0,6 Z" fill="#2d5fa8"/>
    </marker>
    <marker id="aG" markerWidth="8" markerHeight="8" refX="6" refY="3" orient="auto">
      <path d="M0,0 L7,3 L0,6 Z" fill="#1a9a6e"/>
    </marker>
    <marker id="aO" markerWidth="8" markerHeight="8" refX="6" refY="3" orient="auto">
      <path d="M0,0 L7,3 L0,6 Z" fill="#d4700a"/>
    </marker>
    <marker id="aW" markerWidth="8" markerHeight="8" refX="6" refY="3" orient="auto">
      <path d="M0,0 L7,3 L0,6 Z" fill="#ffffff"/>
    </marker>
    <filter id="sd">
      <feDropShadow dx="0" dy="2" stdDeviation="3" flood-color="#0000001a"/>
    </filter>
  </defs>

  <!-- ── Background ── -->
  <rect width="1600" height="1020" fill="url(#bg)"/>

  <!-- ══════════════════════════════════════════
       TITLE
  ══════════════════════════════════════════ -->
  <rect x="0" y="0" width="1600" height="70" fill="url(#titleBar)"/>
  <text x="800" y="30" text-anchor="middle" font-size="26" font-weight="bold" fill="#ffffff">Harness Engineering 落地工程方法</text>
  <text x="800" y="56" text-anchor="middle" font-size="14" fill="#a8c4f0">将不稳定的 Agent 能力约束为可执行 · 可恢复 · 可验证 · 可审计 · 可演进的自动化系统</text>

  <!-- ══════════════════════════════════════════
       ROW A : 六层架构  (full width)
  ══════════════════════════════════════════ -->
  <rect x="32" y="84" width="1536" height="46" rx="8" fill="#0f2a5e" filter="url(#sd)"/>
  <text x="64" y="112" font-size="15" font-weight="bold" fill="#ffd479">🏗  六层架构</text>

  <!-- 6 layer pills -->
  <!-- widths roughly equal: (1536-64-12*5)/6 ≈ 228 each, gap=12 -->
  <rect x="210" y="92" width="200" height="30" rx="6" fill="#1e4fa8"/>
  <text x="310" y="112" text-anchor="middle" font-size="12" fill="#ddeaff">① 输入层  目标/PRD/约束</text>
  <rect x="422" y="92" width="200" height="30" rx="6" fill="#1a7a5e"/>
  <text x="522" y="112" text-anchor="middle" font-size="12" fill="#d0f5e8">② 编排层  流程/调度</text>
  <rect x="634" y="92" width="200" height="30" rx="6" fill="#23a07a"/>
  <text x="734" y="112" text-anchor="middle" font-size="12" fill="#d0f5e8">③ 执行层  Agent/Skill</text>
  <rect x="846" y="92" width="200" height="30" rx="6" fill="#5a45a9"/>
  <text x="946" y="112" text-anchor="middle" font-size="12" fill="#e8d8ff">④ 状态层  文件/DB/日志</text>
  <rect x="1058" y="92" width="200" height="30" rx="6" fill="#b03020"/>
  <text x="1158" y="112" text-anchor="middle" font-size="12" fill="#ffd0d0">⑤ 验证层  测试/Trace/门控</text>
  <rect x="1270" y="92" width="200" height="30" rx="6" fill="#c07010"/>
  <text x="1370" y="112" text-anchor="middle" font-size="12" fill="#fff0c0">⑥ 反馈层  规则/配方/演进</text>

  <!-- ══════════════════════════════════════════
       ROW B : 标准工作流 11步  (full width)
  ══════════════════════════════════════════ -->
  <!-- section label -->
  <text x="64" y="156" font-size="14" font-weight="bold" fill="#1e3a6b">⚡  标准工作流（11 Steps）</text>

  <!-- 11 step boxes: width=124, gap=10, start=32 -->
  <!-- centers: 32+62=94, 94+124+10=228, ... -->
  <!-- Step boxes y=164, h=64 -->

  <!-- helper macro: step box -->
  <!-- S0 -->
  <rect x="32"   y="164" width="124" height="64" rx="9" fill="#1e4fa8" filter="url(#sd)"/>
  <text x="94"   y="186" text-anchor="middle" font-size="11" font-weight="bold" fill="#ffd479">Step 0</text>
  <text x="94"   y="204" text-anchor="middle" font-size="12" fill="#ffffff">需求解析</text>
  <text x="94"   y="220" text-anchor="middle" font-size="11" fill="#c0d8ff">目标/边界/约束</text>
  <line x1="156" y1="196" x2="166" y2="196" stroke="#2d5fa8" stroke-width="1.5" marker-end="url(#aB)"/>

  <!-- S1 -->
  <rect x="168"  y="164" width="124" height="64" rx="9" fill="#1e4fa8" filter="url(#sd)"/>
  <text x="230"  y="186" text-anchor="middle" font-size="11" font-weight="bold" fill="#ffd479">Step 1</text>
  <text x="230"  y="204" text-anchor="middle" font-size="12" fill="#ffffff">任务拆解</text>
  <text x="230"  y="220" text-anchor="middle" font-size="11" fill="#c0d8ff">可闭环单元</text>
  <line x1="292" y1="196" x2="302" y2="196" stroke="#2d5fa8" stroke-width="1.5" marker-end="url(#aB)"/>

  <!-- S2 -->
  <rect x="304"  y="164" width="124" height="64" rx="9" fill="#1e4fa8" filter="url(#sd)"/>
  <text x="366"  y="186" text-anchor="middle" font-size="11" font-weight="bold" fill="#ffd479">Step 2</text>
  <text x="366"  y="204" text-anchor="middle" font-size="12" fill="#ffffff">方案确认</text>
  <text x="366"  y="220" text-anchor="middle" font-size="11" fill="#c0d8ff">计划/风险/确认</text>
  <line x1="428" y1="196" x2="438" y2="196" stroke="#2d5fa8" stroke-width="1.5" marker-end="url(#aB)"/>

  <!-- S3 -->
  <rect x="440"  y="164" width="124" height="64" rx="9" fill="#1a7a5e" filter="url(#sd)"/>
  <text x="502"  y="186" text-anchor="middle" font-size="11" font-weight="bold" fill="#ffd479">Step 3</text>
  <text x="502"  y="204" text-anchor="middle" font-size="12" fill="#ffffff">状态初始化</text>
  <text x="502"  y="220" text-anchor="middle" font-size="11" fill="#c0f0e0">state.json/progress</text>
  <line x1="564" y1="196" x2="574" y2="196" stroke="#1a9a6e" stroke-width="1.5" marker-end="url(#aG)"/>

  <!-- S4 -->
  <rect x="576"  y="164" width="124" height="64" rx="9" fill="#1a7a5e" filter="url(#sd)"/>
  <text x="638"  y="186" text-anchor="middle" font-size="11" font-weight="bold" fill="#ffd479">Step 4</text>
  <text x="638"  y="204" text-anchor="middle" font-size="12" fill="#ffffff">执行准备</text>
  <text x="638"  y="220" text-anchor="middle" font-size="11" fill="#c0f0e0">环境/资源/配置</text>
  <line x1="700" y1="196" x2="710" y2="196" stroke="#1a9a6e" stroke-width="1.5" marker-end="url(#aG)"/>

  <!-- S5 -->
  <rect x="712"  y="164" width="124" height="64" rx="9" fill="#23a07a" filter="url(#sd)"/>
  <text x="774"  y="186" text-anchor="middle" font-size="11" font-weight="bold" fill="#ffd479">Step 5</text>
  <text x="774"  y="204" text-anchor="middle" font-size="12" fill="#ffffff">任务执行</text>
  <text x="774"  y="220" text-anchor="middle" font-size="11" fill="#c0f0e0">Executor/Skill</text>
  <line x1="836" y1="196" x2="846" y2="196" stroke="#1a9a6e" stroke-width="1.5" marker-end="url(#aG)"/>

  <!-- S6 -->
  <rect x="848"  y="164" width="124" height="64" rx="9" fill="#23a07a" filter="url(#sd)"/>
  <text x="910"  y="186" text-anchor="middle" font-size="11" font-weight="bold" fill="#ffd479">Step 6</text>
  <text x="910"  y="204" text-anchor="middle" font-size="12" fill="#ffffff">过程监控</text>
  <text x="910"  y="220" text-anchor="middle" font-size="11" fill="#c0f0e0">日志/异常检测</text>
  <line x1="972" y1="196" x2="982" y2="196" stroke="#1a9a6e" stroke-width="1.5" marker-end="url(#aG)"/>

  <!-- S7 -->
  <rect x="984"  y="164" width="124" height="64" rx="9" fill="#7a45b9" filter="url(#sd)"/>
  <text x="1046" y="186" text-anchor="middle" font-size="11" font-weight="bold" fill="#ffd479">Step 7</text>
  <text x="1046" y="204" text-anchor="middle" font-size="12" fill="#ffffff">结果验证</text>
  <text x="1046" y="220" text-anchor="middle" font-size="11" fill="#e0d0ff">Evaluator/测试</text>
  <line x1="1108" y1="196" x2="1118" y2="196" stroke="#7a45b9" stroke-width="1.5" marker-end="url(#aO)"/>

  <!-- S8 -->
  <rect x="1120" y="164" width="124" height="64" rx="9" fill="#b03020" filter="url(#sd)"/>
  <text x="1182" y="186" text-anchor="middle" font-size="11" font-weight="bold" fill="#ffd479">Step 8</text>
  <text x="1182" y="204" text-anchor="middle" font-size="12" fill="#ffffff">失败处理</text>
  <text x="1182" y="220" text-anchor="middle" font-size="11" fill="#ffd0d0">重试/回滚/阻塞</text>
  <line x1="1244" y1="196" x2="1254" y2="196" stroke="#b03020" stroke-width="1.5" marker-end="url(#aO)"/>

  <!-- S9 -->
  <rect x="1256" y="164" width="124" height="64" rx="9" fill="#c07010" filter="url(#sd)"/>
  <text x="1318" y="186" text-anchor="middle" font-size="11" font-weight="bold" fill="#ffffff">Step 9</text>
  <text x="1318" y="204" text-anchor="middle" font-size="12" fill="#ffffff">关闭门禁</text>
  <text x="1318" y="220" text-anchor="middle" font-size="11" fill="#fff0c0">报告/归档/释放</text>
  <line x1="1380" y1="196" x2="1390" y2="196" stroke="#c07010" stroke-width="1.5" marker-end="url(#aO)"/>

  <!-- S10+11 merged -->
  <rect x="1392" y="164" width="176" height="64" rx="9" fill="#8a3090" filter="url(#sd)"/>
  <text x="1480" y="186" text-anchor="middle" font-size="11" font-weight="bold" fill="#ffd479">Step 10 / 11</text>
  <text x="1480" y="204" text-anchor="middle" font-size="12" fill="#ffffff">决策 &amp; 经验沉淀</text>
  <text x="1480" y="220" text-anchor="middle" font-size="11" fill="#f0d0ff">继续/停止/规则更新</text>

  <!-- Retry arc S7→S5 -->
  <path d="M1046,228 L1046,252 L774,252 L774,228" fill="none" stroke="#d4700a" stroke-width="1.8" stroke-dasharray="5,4" marker-end="url(#aO)"/>
  <rect x="854" y="244" width="112" height="18" rx="5" fill="#fff3e0"/>
  <text x="910" y="257" text-anchor="middle" font-size="11" font-weight="bold" fill="#a04000">NEEDS_FIX → Retry</text>

  <!-- ══════════════════════════════════════════
       ROW C : 左 角色设计 | 右 状态机
  ══════════════════════════════════════════ -->

  <!-- ── 角色设计 (left, x=32, w=740) ── -->
  <rect x="32" y="278" width="740" height="200" rx="10" fill="#0f2a5e" filter="url(#sd)"/>
  <text x="58" y="306" font-size="15" font-weight="bold" fill="#ffd479">👥  角色设计 — 编排与执行分离</text>
  <text x="58" y="324" font-size="12" fill="#90b0e0">执行者不自评 · 验证者不实现 · 编排者不越权执行</text>

  <!-- 6 role cards: 2 rows × 3, card w=210 h=56, gap=14 -->
  <!-- row1 y=332, row2 y=400 -->
  <rect x="52"  y="334" width="210" height="56" rx="8" fill="#1e4fa8"/>
  <text x="157" y="356" text-anchor="middle" font-size="13" font-weight="bold" fill="#ffd479">Orchestrator</text>
  <text x="157" y="374" text-anchor="middle" font-size="11" fill="#d0e4ff">解析/拆解/调度/决策</text>

  <rect x="276" y="334" width="210" height="56" rx="8" fill="#23a07a"/>
  <text x="381" y="356" text-anchor="middle" font-size="13" font-weight="bold" fill="#ffd479">Executor</text>
  <text x="381" y="374" text-anchor="middle" font-size="11" fill="#d0f5e8">执行任务/调用工具/产物</text>

  <rect x="500" y="334" width="258" height="56" rx="8" fill="#7a45b9"/>
  <text x="629" y="356" text-anchor="middle" font-size="13" font-weight="bold" fill="#ffd479">Evaluator</text>
  <text x="629" y="374" text-anchor="middle" font-size="11" fill="#e8d8ff">独立验证/质量结论/修复建议</text>

  <rect x="52"  y="402" width="210" height="56" rx="8" fill="#1a7a5e"/>
  <text x="157" y="424" text-anchor="middle" font-size="13" font-weight="bold" fill="#ffd479">Resource Agent</text>
  <text x="157" y="442" text-anchor="middle" font-size="11" fill="#d0f5e8">资源/环境/监控/释放</text>

  <rect x="276" y="402" width="210" height="56" rx="8" fill="#c07010"/>
  <text x="381" y="424" text-anchor="middle" font-size="13" font-weight="bold" fill="#ffffff">Reporter</text>
  <text x="381" y="442" text-anchor="middle" font-size="11" fill="#fff0c0">汇总/报告/归档/决策日志</text>

  <rect x="500" y="402" width="258" height="56" rx="8" fill="#b03020"/>
  <text x="629" y="424" text-anchor="middle" font-size="13" font-weight="bold" fill="#ffffff">Recovery Agent</text>
  <text x="629" y="442" text-anchor="middle" font-size="11" fill="#ffd0d0">异常识别/重试/回滚/规则更新</text>

  <!-- ── 状态机 (right, x=788, w=780) ── -->
  <rect x="788" y="278" width="780" height="200" rx="10" fill="#1a1a3a" filter="url(#sd)"/>
  <text x="814" y="306" font-size="15" font-weight="bold" fill="#ffd479">🔄  任务状态机</text>
  <text x="814" y="324" font-size="12" fill="#9090c0">每个任务必须经历明确状态转移，"完成"是状态约束的结果而非口头声明</text>

  <!-- happy path: 8 states in a row -->
  <!-- state pill w=82 h=34, gap=8, start x=808 -->
  <!-- centers: 849, 939, 1029, 1119, 1209, 1299, 1389, 1479 -->
  <rect x="808" y="336" width="82" height="34" rx="8" fill="#3a3a6a"/>
  <text x="849" y="358" text-anchor="middle" font-size="12" fill="#c0c0ff">TODO</text>
  <line x1="890" y1="353" x2="898" y2="353" stroke="#6060a0" stroke-width="1.5" marker-end="url(#aB)"/>

  <rect x="900" y="336" width="82" height="34" rx="8" fill="#1e4fa8"/>
  <text x="941" y="358" text-anchor="middle" font-size="12" fill="#ffffff">READY</text>
  <line x1="982" y1="353" x2="990" y2="353" stroke="#2d5fa8" stroke-width="1.5" marker-end="url(#aB)"/>

  <rect x="992" y="336" width="100" height="34" rx="8" fill="#1a7a5e"/>
  <text x="1042" y="358" text-anchor="middle" font-size="12" fill="#ffffff">IN_PROGRESS</text>
  <line x1="1092" y1="353" x2="1100" y2="353" stroke="#1a9a6e" stroke-width="1.5" marker-end="url(#aG)"/>

  <rect x="1102" y="336" width="122" height="34" rx="8" fill="#5a45a9"/>
  <text x="1163" y="358" text-anchor="middle" font-size="12" fill="#ffffff">WAIT_EVAL</text>
  <line x1="1224" y1="353" x2="1232" y2="353" stroke="#7a55c9" stroke-width="1.5" marker-end="url(#aO)"/>

  <rect x="1234" y="336" width="100" height="34" rx="8" fill="#23a07a"/>
  <text x="1284" y="358" text-anchor="middle" font-size="12" fill="#ffffff">APPROVED</text>
  <line x1="1334" y1="353" x2="1342" y2="353" stroke="#1a9a6e" stroke-width="1.5" marker-end="url(#aG)"/>

  <rect x="1344" y="336" width="90" height="34" rx="8" fill="#c07010"/>
  <text x="1389" y="358" text-anchor="middle" font-size="12" fill="#ffffff">CLOSING</text>
  <line x1="1434" y1="353" x2="1442" y2="353" stroke="#c07010" stroke-width="1.5" marker-end="url(#aO)"/>

  <rect x="1444" y="336" width="82" height="34" rx="8" fill="#1e6a1e"/>
  <text x="1485" y="358" text-anchor="middle" font-size="12" fill="#90ff90">DONE ✓</text>

  <!-- exception path -->
  <text x="814" y="400" font-size="12" font-weight="bold" fill="#ff9090">异常路径：</text>
  <rect x="808" y="410" width="100" height="30" rx="7" fill="#b03020"/>
  <text x="858" y="430" text-anchor="middle" font-size="12" fill="#ffffff">FAILED</text>
  <line x1="908" y1="425" x2="916" y2="425" stroke="#b03020" stroke-width="1.5" marker-end="url(#aO)"/>
  <rect x="918" y="410" width="100" height="30" rx="7" fill="#8a3090"/>
  <text x="968" y="430" text-anchor="middle" font-size="12" fill="#ffffff">RETRYING</text>
  <line x1="1018" y1="425" x2="1026" y2="425" stroke="#8a3090" stroke-width="1.5" marker-end="url(#aO)"/>
  <rect x="1028" y="410" width="100" height="30" rx="7" fill="#b03020"/>
  <text x="1078" y="430" text-anchor="middle" font-size="12" fill="#ffffff">BLOCKED</text>
  <line x1="1128" y1="425" x2="1136" y2="425" stroke="#b03020" stroke-width="1.5" marker-end="url(#aO)"/>
  <rect x="1138" y="410" width="180" height="30" rx="7" fill="#6a0000"/>
  <text x="1228" y="430" text-anchor="middle" font-size="12" fill="#ff9090">EMERGENCY_STOPPED</text>

  <text x="1360" y="422" font-size="12" fill="#9090c0">← 任意状态可触发</text>
  <text x="1360" y="440" font-size="12" fill="#9090c0">紧急停止指令</text>

  <!-- ══════════════════════════════════════════
       ROW D : 四层门控 | 状态持久化 | 异常分级
  ══════════════════════════════════════════ -->

  <!-- ── 四层门控 (x=32, w=490) ── -->
  <rect x="32" y="494" width="490" height="192" rx="10" fill="#2a0a0a" filter="url(#sd)"/>
  <text x="58" y="522" font-size="15" font-weight="bold" fill="#ffd479">🛡  四层质量门控</text>
  <text x="58" y="540" font-size="12" fill="#e0a090">不能相信 Agent 自然语言声明，所有结论必须有机械化证据</text>

  <rect x="52"  y="550" width="216" height="60" rx="8" fill="#b03020"/>
  <text x="160" y="574" text-anchor="middle" font-size="14" font-weight="bold" fill="#ffffff">Preflight Gate</text>
  <text x="160" y="594" text-anchor="middle" font-size="11" fill="#ffd0d0">依赖/配置/权限/资源/路径</text>

  <rect x="282" y="550" width="216" height="60" rx="8" fill="#8a3090"/>
  <text x="390" y="574" text-anchor="middle" font-size="14" font-weight="bold" fill="#ffffff">Protocol Gate</text>
  <text x="390" y="594" text-anchor="middle" font-size="11" fill="#f0d0ff">Agent 顺序/步骤/越权检查</text>

  <rect x="52"  y="622" width="216" height="56" rx="8" fill="#5a45a9"/>
  <text x="160" y="645" text-anchor="middle" font-size="14" font-weight="bold" fill="#ffffff">Verification Gate</text>
  <text x="160" y="663" text-anchor="middle" font-size="11" fill="#e8d8ff">测试/指标/API/Evaluator</text>

  <rect x="282" y="622" width="216" height="56" rx="8" fill="#c07010"/>
  <text x="390" y="645" text-anchor="middle" font-size="14" font-weight="bold" fill="#ffffff">Closure Gate</text>
  <text x="390" y="663" text-anchor="middle" font-size="11" fill="#fff0c0">报告/状态/归档/资源释放</text>

  <!-- ── 状态持久化 (x=538, w=490) ── -->
  <rect x="538" y="494" width="490" height="192" rx="10" fill="#1a3a1a" filter="url(#sd)"/>
  <text x="564" y="522" font-size="15" font-weight="bold" fill="#ffd479">📁  状态持久化 — 系统事实源</text>
  <text x="564" y="540" font-size="12" fill="#90d090">Agent 可以忘，状态不能丢；会话可以断，流程不能断</text>

  <!-- 6 file items: 2×3 -->
  <rect x="558" y="550" width="140" height="48" rx="7" fill="#ffffff" stroke="#23a07a" stroke-width="1.5"/>
  <text x="628" y="570" text-anchor="middle" font-size="12" font-weight="bold" fill="#1a3a1a">state.json</text>
  <text x="628" y="588" text-anchor="middle" font-size="11" fill="#2a6a2a">当前步骤/产物/指标</text>

  <rect x="712" y="550" width="140" height="48" rx="7" fill="#ffffff" stroke="#23a07a" stroke-width="1.5"/>
  <text x="782" y="570" text-anchor="middle" font-size="12" font-weight="bold" fill="#1a3a1a">progress.md</text>
  <text x="782" y="588" text-anchor="middle" font-size="11" fill="#2a6a2a">执行日志/经验沉淀</text>

  <rect x="866" y="550" width="148" height="48" rx="7" fill="#ffffff" stroke="#23a07a" stroke-width="1.5"/>
  <text x="940" y="570" text-anchor="middle" font-size="12" font-weight="bold" fill="#1a3a1a">evaluations/</text>
  <text x="940" y="588" text-anchor="middle" font-size="11" fill="#2a6a2a">关闭门禁/评估报告</text>

  <rect x="558" y="610" width="140" height="48" rx="7" fill="#ffffff" stroke="#23a07a" stroke-width="1.5"/>
  <text x="628" y="630" text-anchor="middle" font-size="12" font-weight="bold" fill="#1a3a1a">error_log.json</text>
  <text x="628" y="648" text-anchor="middle" font-size="11" fill="#2a6a2a">失败记录/重试历史</text>

  <rect x="712" y="610" width="140" height="48" rx="7" fill="#ffffff" stroke="#23a07a" stroke-width="1.5"/>
  <text x="782" y="630" text-anchor="middle" font-size="12" font-weight="bold" fill="#1a3a1a">iteration_history</text>
  <text x="782" y="648" text-anchor="middle" font-size="11" fill="#2a6a2a">跨轮对比/决策依据</text>

  <rect x="866" y="610" width="148" height="48" rx="7" fill="#ffffff" stroke="#23a07a" stroke-width="1.5"/>
  <text x="940" y="630" text-anchor="middle" font-size="12" font-weight="bold" fill="#1a3a1a">trace/*.jsonl</text>
  <text x="940" y="648" text-anchor="middle" font-size="11" fill="#2a6a2a">协议审计/轨迹证据</text>

  <!-- ── 异常分级 (x=1044, w=524) ── -->
  <rect x="1044" y="494" width="524" height="192" rx="10" fill="#1a1a0a" filter="url(#sd)"/>
  <text x="1070" y="522" font-size="15" font-weight="bold" fill="#ffd479">⚠  异常处理分级策略</text>
  <text x="1070" y="540" font-size="12" fill="#d0c080">每次失败都应成为下一次不再失败的规则来源</text>

  <!-- 5 level rows -->
  <rect x="1060" y="550" width="48" height="28" rx="5" fill="#23a07a"/>
  <text x="1084" y="569" text-anchor="middle" font-size="12" font-weight="bold" fill="#ffffff">L1</text>
  <text x="1120" y="569" font-size="12" fill="#d0e8d0">自动重试</text>
  <text x="1290" y="569" font-size="11" fill="#909080">网络抖动 · 临时超时</text>

  <rect x="1060" y="586" width="48" height="28" rx="5" fill="#c07010"/>
  <text x="1084" y="605" text-anchor="middle" font-size="12" font-weight="bold" fill="#ffffff">L2</text>
  <text x="1120" y="605" font-size="12" fill="#f0e0c0">自动替换参数</text>
  <text x="1290" y="605" font-size="11" fill="#909080">换端口 · 换节点 · 降并发</text>

  <rect x="1060" y="622" width="48" height="28" rx="5" fill="#b03020"/>
  <text x="1084" y="641" text-anchor="middle" font-size="12" font-weight="bold" fill="#ffffff">L3</text>
  <text x="1120" y="641" font-size="12" fill="#ffd0d0">回滚上一步</text>
  <text x="1290" y="641" font-size="11" fill="#909080">产物不完整 · 状态不一致</text>

  <rect x="1060" y="658" width="48" height="28" rx="5" fill="#8a3090"/>
  <text x="1084" y="677" text-anchor="middle" font-size="12" font-weight="bold" fill="#ffffff">L4</text>
  <text x="1120" y="677" font-size="12" fill="#f0d0ff">暂停请求人工</text>
  <text x="1290" y="677" font-size="11" fill="#909080">权限不足 · 高风险操作</text>

  <rect x="1060" y="694" width="48" height="28" rx="5" fill="#6a0000"/>
  <text x="1084" y="713" text-anchor="middle" font-size="12" font-weight="bold" fill="#ff9090">L5</text>
  <text x="1120" y="713" font-size="12" fill="#ff9090">紧急停止</text>
  <text x="1290" y="713" font-size="11" fill="#909080">破坏性风险 · 资源失控</text>

  <!-- ══════════════════════════════════════════
       ROW E : 落地路径 | 经验资产化 | 反模式
  ══════════════════════════════════════════ -->

  <!-- ── 落地路径 (x=32, w=560) ── -->
  <rect x="32" y="702" width="560" height="182" rx="10" fill="#0f2a5e" filter="url(#sd)"/>
  <text x="58" y="730" font-size="15" font-weight="bold" fill="#ffd479">🚀  落地路径（8 阶段）</text>

  <!-- 8 phase pills in 2 rows of 4 -->
  <rect x="52"  y="742" width="118" height="36" rx="7" fill="#1e4fa8"/>
  <text x="111" y="755" text-anchor="middle" font-size="11" font-weight="bold" fill="#ffd479">阶段 1</text>
  <text x="111" y="771" text-anchor="middle" font-size="11" fill="#d0e4ff">流程显式化</text>

  <rect x="182" y="742" width="118" height="36" rx="7" fill="#1e4fa8"/>
  <text x="241" y="755" text-anchor="middle" font-size="11" font-weight="bold" fill="#ffd479">阶段 2</text>
  <text x="241" y="771" text-anchor="middle" font-size="11" fill="#d0e4ff">任务结构化</text>

  <rect x="312" y="742" width="118" height="36" rx="7" fill="#1a7a5e"/>
  <text x="371" y="755" text-anchor="middle" font-size="11" font-weight="bold" fill="#ffd479">阶段 3</text>
  <text x="371" y="771" text-anchor="middle" font-size="11" fill="#d0f5e8">单点 Skill 化</text>

  <rect x="442" y="742" width="118" height="36" rx="7" fill="#1a7a5e"/>
  <text x="501" y="755" text-anchor="middle" font-size="11" font-weight="bold" fill="#ffd479">阶段 4</text>
  <text x="501" y="771" text-anchor="middle" font-size="11" fill="#d0f5e8">单轮闭环</text>

  <rect x="52"  y="790" width="118" height="36" rx="7" fill="#23a07a"/>
  <text x="111" y="803" text-anchor="middle" font-size="11" font-weight="bold" fill="#ffffff">阶段 5</text>
  <text x="111" y="819" text-anchor="middle" font-size="11" fill="#d0f5e8">外层 Runtime</text>

  <rect x="182" y="790" width="118" height="36" rx="7" fill="#7a45b9"/>
  <text x="241" y="803" text-anchor="middle" font-size="11" font-weight="bold" fill="#ffffff">阶段 6</text>
  <text x="241" y="819" text-anchor="middle" font-size="11" fill="#e8d8ff">门控 &amp; 审计</text>

  <rect x="312" y="790" width="118" height="36" rx="7" fill="#c07010"/>
  <text x="371" y="803" text-anchor="middle" font-size="11" font-weight="bold" fill="#ffffff">阶段 7</text>
  <text x="371" y="819" text-anchor="middle" font-size="11" fill="#fff0c0">多轮自动迭代</text>

  <rect x="442" y="790" width="118" height="36" rx="7" fill="#8a3090"/>
  <text x="501" y="803" text-anchor="middle" font-size="11" font-weight="bold" fill="#ffffff">阶段 8</text>
  <text x="501" y="819" text-anchor="middle" font-size="11" fill="#f0d0ff">自演进</text>

  <!-- phase arrow -->
  <text x="58" y="856" font-size="12" fill="#90b0e0">演进路线：</text>
  <text x="148" y="856" font-size="12" fill="#c0d8ff">人工操作  →  Agent 辅助  →  Harness 驱动自动化闭环  →  自演进系统</text>

  <!-- ── 经验资产化 (x=608, w=460) ── -->
  <rect x="608" y="702" width="460" height="182" rx="10" fill="#1a3a1a" filter="url(#sd)"/>
  <text x="634" y="730" font-size="15" font-weight="bold" fill="#ffd479">💎  经验资产化</text>
  <text x="634" y="748" font-size="12" fill="#90d090">经验不能停留在人脑，必须沉淀为可复用工程资产</text>

  <rect x="628" y="758" width="196" height="48" rx="8" fill="#1a5a2a"/>
  <text x="726" y="778" text-anchor="middle" font-size="12" font-weight="bold" fill="#90ff90">anomaly_rules.yaml</text>
  <text x="726" y="796" text-anchor="middle" font-size="11" fill="#c0f0c0">OOM/超时/端口冲突 → 恢复动作</text>

  <rect x="840" y="758" width="196" height="48" rx="8" fill="#1a5a2a"/>
  <text x="938" y="778" text-anchor="middle" font-size="12" font-weight="bold" fill="#90ff90">quality_rules.yaml</text>
  <text x="938" y="796" text-anchor="middle" font-size="11" fill="#c0f0c0">测试/类型检查/必过项</text>

  <rect x="628" y="818" width="196" height="48" rx="8" fill="#1a5a2a"/>
  <text x="726" y="838" text-anchor="middle" font-size="12" font-weight="bold" fill="#90ff90">recipes.yaml</text>
  <text x="726" y="856" text-anchor="middle" font-size="11" fill="#c0f0c0">超参模板/最佳配置组合</text>

  <rect x="840" y="818" width="196" height="48" rx="8" fill="#1a5a2a"/>
  <text x="938" y="838" text-anchor="middle" font-size="12" font-weight="bold" fill="#90ff90">weakness_rules.yaml</text>
  <text x="938" y="856" text-anchor="middle" font-size="11" fill="#c0f0c0">弱项 → 数据/策略调整</text>

  <!-- ── 反模式 (x=1084, w=484) ── -->
  <rect x="1084" y="702" width="484" height="182" rx="10" fill="#2a0a0a" filter="url(#sd)"/>
  <text x="1110" y="730" font-size="15" font-weight="bold" fill="#ffd479">🚫  常见反模式</text>
  <text x="1110" y="748" font-size="12" fill="#e09080">避免以下做法，否则 Harness 形同虚设</text>

  <!-- 5 anti-pattern rows -->
  <text x="1110" y="770" font-size="12" fill="#ff9090">✗</text>
  <text x="1128" y="770" font-size="12" fill="#ffd0c0">只靠 Prompt 约束</text>
  <text x="1350" y="770" font-size="11" fill="#c09080">Agent 容易跳步骤</text>

  <text x="1110" y="792" font-size="12" fill="#ff9090">✗</text>
  <text x="1128" y="792" font-size="12" fill="#ffd0c0">一个 Agent 包办所有事</text>
  <text x="1350" y="792" font-size="11" fill="#c09080">职责混乱，难审计</text>

  <text x="1110" y="814" font-size="12" fill="#ff9090">✗</text>
  <text x="1128" y="814" font-size="12" fill="#ffd0c0">状态只存在聊天里</text>
  <text x="1350" y="814" font-size="11" fill="#c09080">中断后无法恢复</text>

  <text x="1110" y="836" font-size="12" fill="#ff9090">✗</text>
  <text x="1128" y="836" font-size="12" fill="#ffd0c0">没有独立 Evaluator</text>
  <text x="1350" y="836" font-size="11" fill="#c09080">自评容易误判</text>

  <text x="1110" y="858" font-size="12" fill="#ff9090">✗</text>
  <text x="1128" y="858" font-size="12" fill="#ffd0c0">任务粒度过大</text>
  <text x="1350" y="858" font-size="11" fill="#c09080">上下文漂移，失败难定位</text>

  <!-- ══════════════════════════════════════════
       ROW F : 底部 5 判断标准
  ══════════════════════════════════════════ -->
  <rect x="32" y="900" width="1536" height="100" rx="10" fill="#0f2a5e" filter="url(#sd)"/>
  <text x="800" y="928" text-anchor="middle" font-size="16" font-weight="bold" fill="#ffd479">✅  Harness 落地核心判断标准 — 五个"是否"</text>

  <!-- 5 criteria pills, equal width: (1536-64-16*4)/5 = 278, gap=16 -->
  <rect x="64"  y="940" width="278" height="44" rx="10" fill="#23a07a"/>
  <text x="203" y="958" text-anchor="middle" font-size="14" font-weight="bold" fill="#ffffff">是否可恢复？</text>
  <text x="203" y="976" text-anchor="middle" font-size="12" fill="#d0f5e8">中断后能从断点继续</text>

  <rect x="358" y="940" width="278" height="44" rx="10" fill="#7a45b9"/>
  <text x="497" y="958" text-anchor="middle" font-size="14" font-weight="bold" fill="#ffffff">是否可验证？</text>
  <text x="497" y="976" text-anchor="middle" font-size="12" fill="#e8d8ff">结果有机械化证据</text>

  <rect x="652" y="940" width="278" height="44" rx="10" fill="#1e4fa8"/>
  <text x="791" y="958" text-anchor="middle" font-size="14" font-weight="bold" fill="#ffffff">是否可审计？</text>
  <text x="791" y="976" text-anchor="middle" font-size="12" fill="#d0e4ff">轨迹可追溯可复盘</text>

  <rect x="946" y="940" width="278" height="44" rx="10" fill="#c07010"/>
  <text x="1085" y="958" text-anchor="middle" font-size="14" font-weight="bold" fill="#ffffff">是否可复用？</text>
  <text x="1085" y="976" text-anchor="middle" font-size="12" fill="#fff0c0">经验沉淀为资产</text>

  <rect x="1240" y="940" width="278" height="44" rx="10" fill="#8a3090"/>
  <text x="1379" y="958" text-anchor="middle" font-size="14" font-weight="bold" fill="#ffffff">是否可演进？</text>
  <text x="1379" y="976" text-anchor="middle" font-size="12" fill="#f0d0ff">失败驱动规则更新</text>
</svg>